<?xml version="1.0" encoding="UTF-8" standalone="no"?>
<svg
   xmlns:dc="http://purl.org/dc/elements/1.1/"
   xmlns:cc="http://creativecommons.org/ns#"
   xmlns:rdf="http://www.w3.org/1999/02/22-rdf-syntax-ns#"
   xmlns:svg="http://www.w3.org/2000/svg"
   xmlns="http://www.w3.org/2000/svg"
   id="svg8"
   version="1.1"
   viewBox="0 0 188.77727 65.434443"
   height="247.31126"
   width="713.48889">
  <defs
     id="defs2" />
  <metadata
     id="metadata5">
    <rdf:RDF>
      <cc:Work
         rdf:about="">
        <dc:format>image/svg+xml</dc:format>
        <dc:type
           rdf:resource="http://purl.org/dc/dcmitype/StillImage" />
        <dc:title></dc:title>
      </cc:Work>
    </rdf:RDF>
  </metadata>
  <g
     transform="translate(-39.99574,-63.815936)"
     id="g93">
    <g
       id="g1852"
       transform="translate(-187.50146,-60.63067)">
      <g
         transform="matrix(0.71348889,0,0,0.24731126,692.83009,320.33646)"
         id="g1822">
        <rect
           style="fill:#ffe66d;fill-opacity:1;stroke:none;stroke-width:0.101166;stroke-opacity:1"
           id="rect1818"
           width="264.58334"
           height="264.58334"
           x="-652.1936"
           y="-792.07819" />
      </g>
      <g
         transform="matrix(1.654825,0,0,1.654825,267.34847,519.68891)"
         id="g1816">
        <path
           style="color:#000000;font-style:normal;font-variant:normal;font-weight:normal;font-stretch:normal;font-size:medium;line-height:normal;font-family:sans-serif;font-variant-ligatures:normal;font-variant-position:normal;font-variant-caps:normal;font-variant-numeric:normal;font-variant-alternates:normal;font-variant-east-asian:normal;font-feature-settings:normal;font-variation-settings:normal;text-indent:0;text-align:start;text-decoration:none;text-decoration-line:none;text-decoration-style:solid;text-decoration-color:#000000;letter-spacing:normal;word-spacing:normal;text-transform:none;writing-mode:lr-tb;direction:ltr;text-orientation:mixed;dominant-baseline:auto;baseline-shift:baseline;text-anchor:start;white-space:normal;shape-padding:0;shape-margin:0;inline-size:0;clip-rule:nonzero;display:inline;overflow:visible;visibility:visible;opacity:1;isolation:auto;mix-blend-mode:normal;color-interpolation:sRGB;color-interpolation-filters:linearRGB;solid-color:#000000;solid-opacity:1;vector-effect:none;fill:#1a535c;fill-opacity:1;fill-rule:nonzero;stroke:none;stroke-width:0.1;stroke-linecap:butt;stroke-linejoin:miter;stroke-miterlimit:4;stroke-dasharray:none;stroke-dashoffset:0;stroke-opacity:1;color-rendering:auto;image-rendering:auto;shape-rendering:auto;text-rendering:auto;enable-background:accumulate;stop-color:#000000;stop-opacity:1"
           d="m -2.84375,-229.69336 c -1.9654683,-0.19358 -3.9959971,0.27335 -5.7324219,1.43359 -3.4728531,2.32048 -4.8288471,6.78962 -3.2304691,10.64844 1.598376,3.85883 5.7179482,6.06094 9.8144535,5.2461 4.0965018,-0.81485 7.0585938,-4.42482 7.0585937,-8.60157 v -1.25195 H -3.703125 v 2.50195 h 6.0507812 c -0.5015003,2.42532 -2.31592616,4.39873 -4.828125,4.89844 -2.9411867,0.58504 -5.8680335,-0.97947 -7.015625,-3.75 -1.1475912,-2.77052 -0.1848169,-5.94529 2.3085938,-7.61133 2.4934124,-1.66604 5.7955466,-1.34117 7.91601562,0.7793 l 1.76953128,-1.76953 c -1.4767055,-1.47671 -3.37632861,-2.32986 -5.3417969,-2.52344 z"
           id="path1802" />
        <g
           style="fill:#1a535c;fill-opacity:1;stroke:none;stroke-width:1.19935"
           id="g1806"
           transform="matrix(0.08337846,0,0,0.08337846,0.91877271,-289.5173)">
          <path
             id="path1804"
             style="color:#000000;font-style:normal;font-variant:normal;font-weight:normal;font-stretch:normal;font-size:medium;line-height:normal;font-family:sans-serif;font-variant-ligatures:normal;font-variant-position:normal;font-variant-caps:normal;font-variant-numeric:normal;font-variant-alternates:normal;font-variant-east-asian:normal;font-feature-settings:normal;font-variation-settings:normal;text-indent:0;text-align:start;text-decoration:none;text-decoration-line:none;text-decoration-style:solid;text-decoration-color:#000000;letter-spacing:normal;word-spacing:normal;text-transform:none;writing-mode:lr-tb;direction:ltr;text-orientation:mixed;dominant-baseline:auto;baseline-shift:baseline;text-anchor:start;white-space:normal;shape-padding:0;shape-margin:0;inline-size:0;clip-rule:nonzero;display:inline;overflow:visible;visibility:visible;opacity:1;isolation:auto;mix-blend-mode:normal;color-interpolation:sRGB;color-interpolation-filters:linearRGB;solid-color:#000000;solid-opacity:1;vector-effect:none;fill:#1a535c;fill-opacity:1;fill-rule:nonzero;stroke:none;stroke-width:0.377953;stroke-linecap:butt;stroke-linejoin:miter;stroke-miterlimit:4;stroke-dasharray:none;stroke-dashoffset:0;stroke-opacity:1;color-rendering:auto;image-rendering:auto;shape-rendering:auto;text-rendering:auto;enable-background:accumulate;stop-color:#000000;stop-opacity:1"
             d="m 51.955078,-854.35742 c -14.327486,0 -26.044922,11.71743 -26.044922,26.04492 0,14.32749 11.717436,26.04297 26.044922,26.04297 6.294997,0 12.083168,-2.26245 16.597656,-6.01367 l -0.0098,6.00586 9.455078,0.0156 0.07227,-47.26562 -9.455078,-0.0137 -0.002,1.25 c -4.52336,-3.78181 -10.334518,-6.0664 -16.658203,-6.0664 z m 0,9.45508 c 9.218202,0 16.587891,7.37164 16.587891,16.58984 0,9.2182 -7.369689,16.58984 -16.587891,16.58984 -9.218198,0 -16.591797,-7.37164 -16.591797,-16.58984 0,-9.2182 7.373599,-16.58984 16.591797,-16.58984 z"
             transform="matrix(3.1732817,0,0,3.1732817,-11.02535,3472.3273)" />
        </g>
        <path
           style="color:#000000;font-style:normal;font-variant:normal;font-weight:normal;font-stretch:normal;font-size:medium;line-height:normal;font-family:sans-serif;font-variant-ligatures:normal;font-variant-position:normal;font-variant-caps:normal;font-variant-numeric:normal;font-variant-alternates:normal;font-variant-east-asian:normal;font-feature-settings:normal;font-variation-settings:normal;text-indent:0;text-align:start;text-decoration:none;text-decoration-line:none;text-decoration-style:solid;text-decoration-color:#000000;letter-spacing:normal;word-spacing:normal;text-transform:none;writing-mode:lr-tb;direction:ltr;text-orientation:mixed;dominant-baseline:auto;baseline-shift:baseline;text-anchor:start;white-space:normal;shape-padding:0;shape-margin:0;inline-size:0;clip-rule:nonzero;display:inline;overflow:visible;visibility:visible;opacity:1;isolation:auto;mix-blend-mode:normal;color-interpolation:sRGB;color-interpolation-filters:linearRGB;solid-color:#000000;solid-opacity:1;vector-effect:none;fill:#1a535c;fill-opacity:1;fill-rule:nonzero;stroke:none;stroke-width:0.1;stroke-linecap:butt;stroke-linejoin:miter;stroke-miterlimit:4;stroke-dasharray:none;stroke-dashoffset:0;stroke-opacity:1;color-rendering:auto;image-rendering:auto;shape-rendering:auto;text-rendering:auto;enable-background:accumulate;stop-color:#000000;stop-opacity:1"
           d="m 60.098436,-226.01172 c -2.237999,0.15787 -4.322964,1.40596 -5.490234,3.42774 -1.556357,2.69569 -1.105336,6.11733 1.095703,8.31836 2.201034,2.20103 5.620709,2.65205 8.316406,1.0957 l -1.25,-2.16602 c -1.725723,0.99635 -3.889782,0.71178 -5.298828,-0.69726 -1.409041,-1.40904 -1.693608,-3.57311 -0.697265,-5.29883 0.99634,-1.72572 3.012705,-2.56067 4.9375,-2.04492 1.474962,0.39521 2.386849,1.59481 2.832031,2.98828 h -3.96875 v 2.50195 h 6.890625 v -1.25195 c 0,-3.11273 -2.098807,-5.84868 -5.105469,-6.6543 -0.751666,-0.20141 -1.515719,-0.27137 -2.261719,-0.21875 z"
           id="path1808" />
        <path
           id="path1810"
           style="color:#000000;font-style:normal;font-variant:normal;font-weight:normal;font-stretch:normal;font-size:medium;line-height:normal;font-family:sans-serif;font-variant-ligatures:normal;font-variant-position:normal;font-variant-caps:normal;font-variant-numeric:normal;font-variant-alternates:normal;font-variant-east-asian:normal;font-feature-settings:normal;font-variation-settings:normal;text-indent:0;text-align:start;text-decoration:none;text-decoration-line:none;text-decoration-style:solid;text-decoration-color:#000000;letter-spacing:normal;word-spacing:normal;text-transform:none;writing-mode:lr-tb;direction:ltr;text-orientation:mixed;dominant-baseline:auto;baseline-shift:baseline;text-anchor:start;white-space:normal;shape-padding:0;shape-margin:0;inline-size:0;clip-rule:nonzero;display:inline;overflow:visible;visibility:visible;isolation:auto;mix-blend-mode:normal;color-interpolation:sRGB;color-interpolation-filters:linearRGB;solid-color:#000000;solid-opacity:1;vector-effect:none;fill:#1a535c;fill-opacity:1;fill-rule:evenodd;stroke:none;stroke-width:0.1;stroke-linecap:butt;stroke-linejoin:miter;stroke-miterlimit:4;stroke-dasharray:none;stroke-dashoffset:0;stroke-opacity:1;color-rendering:auto;image-rendering:auto;shape-rendering:auto;text-rendering:auto;enable-background:accumulate;stop-color:#000000"
           d="m 70.390032,-229.7834 v 3.74241 l -1.132231,-0.002 -0.0036,2.50166 1.135848,0.002 v 4.34753 0.24443 h 0.0083 c 0.175705,3.67859 4.278726,6.64663 7.987626,6.64663 v -2.50166 c -2.438987,0 -5.494756,-1.95041 -5.494756,-4.3894 v -4.34392 l 5.480802,0.007 0.0036,-2.50114 -5.484421,-0.008 v -3.74603 z" />
        <path
           id="path1812"
           style="color:#000000;font-style:normal;font-variant:normal;font-weight:normal;font-stretch:normal;font-size:medium;line-height:normal;font-family:sans-serif;font-variant-ligatures:normal;font-variant-position:normal;font-variant-caps:normal;font-variant-numeric:normal;font-variant-alternates:normal;font-variant-east-asian:normal;font-feature-settings:normal;font-variation-settings:normal;text-indent:0;text-align:start;text-decoration:none;text-decoration-line:none;text-decoration-style:solid;text-decoration-color:#000000;letter-spacing:normal;word-spacing:normal;text-transform:none;writing-mode:lr-tb;direction:ltr;text-orientation:mixed;dominant-baseline:auto;baseline-shift:baseline;text-anchor:start;white-space:normal;shape-padding:0;shape-margin:0;inline-size:0;clip-rule:nonzero;display:inline;overflow:visible;visibility:visible;isolation:auto;mix-blend-mode:normal;color-interpolation:sRGB;color-interpolation-filters:linearRGB;solid-color:#000000;solid-opacity:1;vector-effect:none;fill:#1a535c;fill-opacity:1;fill-rule:nonzero;stroke:none;stroke-width:0.1;stroke-linecap:butt;stroke-linejoin:miter;stroke-miterlimit:4;stroke-dasharray:none;stroke-dashoffset:0;stroke-opacity:1;color-rendering:auto;image-rendering:auto;shape-rendering:auto;text-rendering:auto;enable-background:accumulate;stop-color:#000000"
           d="m 44.924421,-226.02859 c -3.790815,0 -6.891052,3.10025 -6.891055,6.89106 0,3.79082 3.10024,6.89053 6.891055,6.89053 1.698845,0 3.257778,-0.62379 4.462259,-1.65209 l 0.01085,1.20716 v 0.004 c -0.002,2.43728 -1.951119,4.38578 -4.388879,4.38578 v 2.50114 c 3.790463,0 6.889967,-3.09915 6.890533,-6.8895 v -0.001 l -0.106968,-12.08919 -2.501657,0.0222 0.0026,0.30231 c -1.191066,-0.98103 -2.713937,-1.572 -4.368723,-1.572 z m 0,2.50166 c 2.438982,0 4.389395,1.95042 4.389395,4.3894 0,2.43899 -1.950413,4.38887 -4.389395,4.38887 -2.438982,0 -4.389398,-1.94988 -4.389398,-4.38887 0,-2.43898 1.950416,-4.3894 4.389398,-4.3894 z" />
        <path
           d="m 33.743722,-229.78391 -0.0062,5.33559 c -1.196004,-0.99781 -2.731783,-1.60042 -4.402315,-1.60042 -3.790814,0 -6.891053,3.10024 -6.891053,6.89106 0,3.79081 3.100239,6.89053 6.891053,6.89053 1.664899,0 3.196175,-0.59827 4.39043,-1.59008 l -0.0016,1.58853 2.501656,0.003 0.01913,-17.51521 z m -4.408517,6.23683 c 2.438982,0 4.388879,1.95041 4.388879,4.3894 0,2.43898 -1.949897,4.38939 -4.388879,4.38939 -2.438982,0 -4.389397,-1.95041 -4.389397,-4.38939 0,-2.43899 1.950415,-4.3894 4.389397,-4.3894 z"
           style="color:#000000;font-style:normal;font-variant:normal;font-weight:normal;font-stretch:normal;font-size:medium;line-height:normal;font-family:sans-serif;font-variant-ligatures:normal;font-variant-position:normal;font-variant-caps:normal;font-variant-numeric:normal;font-variant-alternates:normal;font-variant-east-asian:normal;font-feature-settings:normal;font-variation-settings:normal;text-indent:0;text-align:start;text-decoration:none;text-decoration-line:none;text-decoration-style:solid;text-decoration-color:#000000;letter-spacing:normal;word-spacing:normal;text-transform:none;writing-mode:lr-tb;direction:ltr;text-orientation:mixed;dominant-baseline:auto;baseline-shift:baseline;text-anchor:start;white-space:normal;shape-padding:0;shape-margin:0;inline-size:0;clip-rule:nonzero;display:inline;overflow:visible;visibility:visible;isolation:auto;mix-blend-mode:normal;color-interpolation:sRGB;color-interpolation-filters:linearRGB;solid-color:#000000;solid-opacity:1;vector-effect:none;fill:#1a535c;fill-opacity:1;fill-rule:nonzero;stroke:none;stroke-width:0.1;stroke-linecap:butt;stroke-linejoin:miter;stroke-miterlimit:4;stroke-dasharray:none;stroke-dashoffset:0;stroke-opacity:1;color-rendering:auto;image-rendering:auto;shape-rendering:auto;text-rendering:auto;enable-background:accumulate;stop-color:#000000"
           id="path1814" />
      </g>
    </g>
  </g>
</svg>
