<?xml version="1.0" encoding="UTF-8" standalone="no"?>
<svg
   xmlns:dc="http://purl.org/dc/elements/1.1/"
   xmlns:cc="http://creativecommons.org/ns#"
   xmlns:rdf="http://www.w3.org/1999/02/22-rdf-syntax-ns#"
   xmlns:svg="http://www.w3.org/2000/svg"
   xmlns="http://www.w3.org/2000/svg"
   xmlns:sodipodi="http://sodipodi.sourceforge.net/DTD/sodipodi-0.dtd"
   xmlns:inkscape="http://www.inkscape.org/namespaces/inkscape"
   inkscape:version="1.0 (4035a4fb49, 2020-05-01)"
   inkscape:export-ydpi="96"
   inkscape:export-xdpi="96"
   inkscape:export-filename="/mnt/datos/Gadget/Logo/logo-cuadrado-fondo-url.png"
   sodipodi:docname="logo-cuadrado-fondo-url.svg"
   id="svg8"
   version="1.1"
   viewBox="0 0 135.46667 135.46668"
   height="512"
   width="512">
  <sodipodi:namedview
     inkscape:current-layer="svg8"
     inkscape:window-maximized="1"
     inkscape:window-y="0"
     inkscape:window-x="0"
     inkscape:cy="256"
     inkscape:cx="256"
     inkscape:zoom="1.5507812"
     showgrid="false"
     id="namedview24"
     inkscape:window-height="1016"
     inkscape:window-width="1920"
     inkscape:pageshadow="2"
     inkscape:pageopacity="0"
     guidetolerance="10"
     gridtolerance="10"
     objecttolerance="10"
     borderopacity="1"
     bordercolor="#666666"
     pagecolor="#ffffff" />
  <defs
     id="defs2" />
  <metadata
     id="metadata5">
    <rdf:RDF>
      <cc:Work
         rdf:about="">
        <dc:format>image/svg+xml</dc:format>
        <dc:type
           rdf:resource="http://purl.org/dc/dcmitype/StillImage" />
        <dc:title />
      </cc:Work>
    </rdf:RDF>
  </metadata>
  <rect
     style="fill:#ffe66d;fill-opacity:1;stroke:none;stroke-width:0.051797;stroke-opacity:1"
     id="rect1779"
     width="135.46667"
     height="135.46667"
     x="4.9999999e-06"
     y="-1.25e-06" />
  <path
     id="path1694-1"
     style="color:#000000;font-style:normal;font-variant:normal;font-weight:normal;font-stretch:normal;font-size:medium;line-height:normal;font-family:sans-serif;font-variant-ligatures:normal;font-variant-position:normal;font-variant-caps:normal;font-variant-numeric:normal;font-variant-alternates:normal;font-variant-east-asian:normal;font-feature-settings:normal;font-variation-settings:normal;text-indent:0;text-align:start;text-decoration:none;text-decoration-line:none;text-decoration-style:solid;text-decoration-color:#000000;letter-spacing:normal;word-spacing:normal;text-transform:none;writing-mode:lr-tb;direction:ltr;text-orientation:mixed;dominant-baseline:auto;baseline-shift:baseline;text-anchor:start;white-space:normal;shape-padding:0;shape-margin:0;inline-size:0;clip-rule:nonzero;display:inline;overflow:visible;visibility:visible;isolation:auto;mix-blend-mode:normal;color-interpolation:sRGB;color-interpolation-filters:linearRGB;solid-color:#000000;solid-opacity:1;vector-effect:none;fill:#1a535c;fill-opacity:1;fill-rule:nonzero;stroke:none;stroke-width:2.16147;stroke-linecap:butt;stroke-linejoin:miter;stroke-miterlimit:4;stroke-dasharray:none;stroke-dashoffset:0;stroke-opacity:1;color-rendering:auto;image-rendering:auto;shape-rendering:auto;text-rendering:auto;enable-background:accumulate;stop-color:#000000"
     d="M 254.58984 66.453125 C 218.53394 66.701705 182.33974 77.1918 150.67188 98.351562 C 75.607216 148.50802 46.299182 245.1084 80.847656 328.51562 C 84.792535 338.03943 89.454262 347.09045 94.738281 355.63672 L 164.06836 355.63672 C 150.00578 342.64916 138.52606 326.50885 130.78906 307.83008 C 105.98422 247.94611 126.79317 179.32342 180.6875 143.3125 C 234.58183 107.30154 305.95769 114.32292 351.79102 160.15625 L 390.03906 121.91016 C 358.12052 89.991508 317.05917 71.549405 274.57617 67.365234 C 267.9382 66.711458 261.26686 66.407092 254.58984 66.453125 z M 256.00195 228.92773 L 256.00195 283.00586 L 386.78711 283.00586 C 380.96018 311.18569 366.92391 336.53259 346.76172 355.63672 L 417.16797 355.63672 C 435.23548 326.46658 445.55273 292.21651 445.55273 255.98828 L 445.55273 228.92773 L 256.00195 228.92773 z "
     transform="scale(0.26458335)" />
  <path
     style="fill:none;fill-opacity:1;stroke:#1a535c;stroke-width:0.763578;stroke-linecap:butt;stroke-linejoin:miter;stroke-opacity:1"
     d="M 17.954626,94.16124 H 117.51205"
     id="path13" />
  <g
     aria-label="www.micamara.ga"
     id="text17"
     style="font-style:normal;font-variant:normal;font-weight:500;font-stretch:normal;font-size:10.5834px;line-height:1.25;font-family:Montserrat;-inkscape-font-specification:'Montserrat Medium';fill:#1a535c;fill-opacity:1;stroke-width:0.264584">
    <path
       d="m 26.431719,98.330915 -1.672178,4.487365 -1.661593,-4.487365 h -0.857256 l -1.693344,4.466195 -1.629843,-4.466195 h -0.96309 l 2.08493,5.609205 h 0.973673 l 1.640427,-4.25453 1.61926,4.25453 h 0.973673 l 2.095513,-5.609205 z"
       style="font-style:normal;font-variant:normal;font-weight:500;font-stretch:normal;font-family:Montserrat;-inkscape-font-specification:'Montserrat Medium';fill:#1a535c;fill-opacity:1;stroke-width:0.264584"
       id="path30" />
    <path
       d="m 35.861496,98.330915 -1.672177,4.487365 -1.661594,-4.487365 h -0.857256 l -1.693344,4.466195 -1.629843,-4.466195 h -0.96309 l 2.08493,5.609205 h 0.973673 l 1.640427,-4.25453 1.61926,4.25453 h 0.973673 l 2.095513,-5.609205 z"
       style="font-style:normal;font-variant:normal;font-weight:500;font-stretch:normal;font-family:Montserrat;-inkscape-font-specification:'Montserrat Medium';fill:#1a535c;fill-opacity:1;stroke-width:0.264584"
       id="path32" />
    <path
       d="m 45.291273,98.330915 -1.672177,4.487365 -1.661594,-4.487365 h -0.857255 l -1.693344,4.466195 -1.629844,-4.466195 H 36.81397 l 2.084929,5.609205 h 0.973673 l 1.640427,-4.25453 1.61926,4.25453 h 0.973673 l 2.095513,-5.609205 z"
       style="font-style:normal;font-variant:normal;font-weight:500;font-stretch:normal;font-family:Montserrat;-inkscape-font-specification:'Montserrat Medium';fill:#1a535c;fill-opacity:1;stroke-width:0.264584"
       id="path34" />
    <path
       d="m 47.122172,104.00362 c 0.381003,0 0.698505,-0.30692 0.698505,-0.73026 0,-0.42333 -0.317502,-0.71967 -0.698505,-0.71967 -0.391586,0 -0.719671,0.29634 -0.719671,0.71967 0,0.42334 0.328085,0.73026 0.719671,0.73026 z"
       style="font-style:normal;font-variant:normal;font-weight:500;font-stretch:normal;font-family:Montserrat;-inkscape-font-specification:'Montserrat Medium';fill:#1a535c;fill-opacity:1;stroke-width:0.264584"
       id="path36" />
    <path
       d="m 56.297972,98.277998 c -0.952506,0 -1.735678,0.402169 -2.159014,1.037173 -0.370419,-0.698504 -1.09009,-1.037173 -1.947345,-1.037173 -0.846672,0 -1.534593,0.317502 -1.936762,0.889006 v -0.836089 h -0.973673 v 5.609205 h 1.016006 v -2.88927 c 0,-1.217092 0.666754,-1.86268 1.682761,-1.86268 0.920756,0 1.449926,0.539754 1.449926,1.64043 v 3.11152 h 1.016006 v -2.88927 c 0,-1.217092 0.666754,-1.86268 1.682761,-1.86268 0.920755,0 1.449925,0.539754 1.449925,1.64043 v 3.11152 h 1.016007 v -3.22794 c 0,-1.65101 -0.931339,-2.434182 -2.296598,-2.434182 z"
       style="font-style:normal;font-variant:normal;font-weight:500;font-stretch:normal;font-family:Montserrat;-inkscape-font-specification:'Montserrat Medium';fill:#1a535c;fill-opacity:1;stroke-width:0.264584"
       id="path38" />
    <path
       d="m 60.975827,97.251408 c 0.402169,0 0.687921,-0.296335 0.687921,-0.677337 0,-0.359836 -0.296336,-0.645588 -0.687921,-0.645588 -0.391586,0 -0.687921,0.296335 -0.687921,0.666754 0,0.370419 0.296335,0.656171 0.687921,0.656171 z m -0.508004,6.688712 h 1.016007 v -5.609205 h -1.016007 z"
       style="font-style:normal;font-variant:normal;font-weight:500;font-stretch:normal;font-family:Montserrat;-inkscape-font-specification:'Montserrat Medium';fill:#1a535c;fill-opacity:1;stroke-width:0.264584"
       id="path40" />
    <path
       d="m 65.865351,104.00362 c 1.005423,0 1.841512,-0.42334 2.286015,-1.20651 l -0.772588,-0.48684 c -0.359836,0.55034 -0.910173,0.80434 -1.52401,0.80434 -1.100674,0 -1.926179,-0.762 -1.926179,-1.97909 0,-1.195928 0.825505,-1.968516 1.926179,-1.968516 0.613837,0 1.164174,0.254001 1.52401,0.804338 l 0.772588,-0.49742 c -0.444503,-0.783171 -1.280592,-1.195924 -2.286015,-1.195924 -1.725094,0 -2.963352,1.185341 -2.963352,2.857522 0,1.67217 1.238258,2.8681 2.963352,2.8681 z"
       style="font-style:normal;font-variant:normal;font-weight:500;font-stretch:normal;font-family:Montserrat;-inkscape-font-specification:'Montserrat Medium';fill:#1a535c;fill-opacity:1;stroke-width:0.264584"
       id="path42" />
    <path
       d="m 71.506292,98.277998 c -0.899589,0 -1.735677,0.254002 -2.317764,0.719671 l 0.423336,0.762005 c 0.433919,-0.370419 1.111256,-0.603254 1.778011,-0.603254 1.005423,0 1.502842,0.49742 1.502842,1.35468 v 0.20108 h -1.608676 c -1.672177,0 -2.254264,0.74084 -2.254264,1.64043 0,0.97367 0.804338,1.65101 2.074346,1.65101 0.878422,0 1.502843,-0.29634 1.841511,-0.80434 v 0.74084 h 0.96309 v -3.38669 c 0,-1.534594 -0.867839,-2.275432 -2.402432,-2.275432 z m -0.232835,4.942452 c -0.772588,0 -1.238257,-0.34926 -1.238257,-0.91018 0,-0.47625 0.285751,-0.86784 1.291174,-0.86784 h 1.566343 v 0.78318 c -0.254001,0.64558 -0.857255,0.99484 -1.61926,0.99484 z"
       style="font-style:normal;font-variant:normal;font-weight:500;font-stretch:normal;font-family:Montserrat;-inkscape-font-specification:'Montserrat Medium';fill:#1a535c;fill-opacity:1;stroke-width:0.264584"
       id="path44" />
    <path
       d="m 82.809359,98.277998 c -0.952506,0 -1.735678,0.402169 -2.159014,1.037173 -0.370419,-0.698504 -1.09009,-1.037173 -1.947345,-1.037173 -0.846672,0 -1.534593,0.317502 -1.936762,0.889006 v -0.836089 h -0.973673 v 5.609205 h 1.016006 v -2.88927 c 0,-1.217092 0.666754,-1.86268 1.682761,-1.86268 0.920756,0 1.449925,0.539754 1.449925,1.64043 v 3.11152 h 1.016007 v -2.88927 c 0,-1.217092 0.666754,-1.86268 1.68276,-1.86268 0.920756,0 1.449926,0.539754 1.449926,1.64043 v 3.11152 h 1.016007 v -3.22794 c 0,-1.65101 -0.93134,-2.434182 -2.296598,-2.434182 z"
       style="font-style:normal;font-variant:normal;font-weight:500;font-stretch:normal;font-family:Montserrat;-inkscape-font-specification:'Montserrat Medium';fill:#1a535c;fill-opacity:1;stroke-width:0.264584"
       id="path46" />
    <path
       d="m 89.021806,98.277998 c -0.899589,0 -1.735677,0.254002 -2.317764,0.719671 l 0.423336,0.762005 c 0.433919,-0.370419 1.111257,-0.603254 1.778011,-0.603254 1.005423,0 1.502843,0.49742 1.502843,1.35468 v 0.20108 h -1.608677 c -1.672177,0 -2.254264,0.74084 -2.254264,1.64043 0,0.97367 0.804338,1.65101 2.074346,1.65101 0.878422,0 1.502843,-0.29634 1.841512,-0.80434 v 0.74084 h 0.963089 v -3.38669 c 0,-1.534594 -0.867839,-2.275432 -2.402432,-2.275432 z m -0.232834,4.942452 c -0.772589,0 -1.238258,-0.34926 -1.238258,-0.91018 0,-0.47625 0.285752,-0.86784 1.291175,-0.86784 h 1.566343 v 0.78318 c -0.254002,0.64558 -0.857256,0.99484 -1.61926,0.99484 z"
       style="font-style:normal;font-variant:normal;font-weight:500;font-stretch:normal;font-family:Montserrat;-inkscape-font-specification:'Montserrat Medium';fill:#1a535c;fill-opacity:1;stroke-width:0.264584"
       id="path48" />
    <path
       d="m 94.281756,99.272838 v -0.941923 h -0.973673 v 5.609205 h 1.016006 v -2.79402 c 0,-1.227675 0.677338,-1.894429 1.767428,-1.894429 0.07408,0 0.148168,0 0.232835,0.01058 v -0.984256 c -0.984256,0 -1.682761,0.338669 -2.042596,0.99484 z"
       style="font-style:normal;font-variant:normal;font-weight:500;font-stretch:normal;font-family:Montserrat;-inkscape-font-specification:'Montserrat Medium';fill:#1a535c;fill-opacity:1;stroke-width:0.264584"
       id="path50" />
    <path
       d="m 99.20302,98.277998 c -0.899589,0 -1.735678,0.254002 -2.317765,0.719671 l 0.423336,0.762005 c 0.43392,-0.370419 1.111257,-0.603254 1.778011,-0.603254 1.005428,0 1.502848,0.49742 1.502848,1.35468 v 0.20108 h -1.608682 c -1.672177,0 -2.254264,0.74084 -2.254264,1.64043 0,0.97367 0.804339,1.65101 2.074347,1.65101 0.878422,0 1.502839,-0.29634 1.841509,-0.80434 v 0.74084 h 0.96309 v -3.38669 c 0,-1.534594 -0.86784,-2.275432 -2.40243,-2.275432 z m -0.232835,4.942452 c -0.772588,0 -1.238258,-0.34926 -1.238258,-0.91018 0,-0.47625 0.285752,-0.86784 1.291175,-0.86784 h 1.566348 v 0.78318 c -0.25401,0.64558 -0.85726,0.99484 -1.619265,0.99484 z"
       style="font-style:normal;font-variant:normal;font-weight:500;font-stretch:normal;font-family:Montserrat;-inkscape-font-specification:'Montserrat Medium';fill:#1a535c;fill-opacity:1;stroke-width:0.264584"
       id="path52" />
    <path
       d="m 103.73271,104.00362 c 0.381,0 0.6985,-0.30692 0.6985,-0.73026 0,-0.42333 -0.3175,-0.71967 -0.6985,-0.71967 -0.39159,0 -0.71967,0.29634 -0.71967,0.71967 0,0.42334 0.32808,0.73026 0.71967,0.73026 z"
       style="font-style:normal;font-variant:normal;font-weight:500;font-stretch:normal;font-family:Montserrat;-inkscape-font-specification:'Montserrat Medium';fill:#1a535c;fill-opacity:1;stroke-width:0.264584"
       id="path54" />
    <path
       d="m 110.1674,98.330915 v 0.867839 c -0.47626,-0.613837 -1.23826,-0.920756 -2.07435,-0.920756 -1.61926,0 -2.84693,1.09009 -2.84693,2.709352 0,1.61926 1.22767,2.71993 2.84693,2.71993 0.80434,0 1.53459,-0.28575 2.02143,-0.86784 v 0.44451 c 0,1.27 -0.60325,1.88384 -1.92618,1.88384 -0.8255,0 -1.64043,-0.28575 -2.15901,-0.73025 l -0.48684,0.78317 c 0.61384,0.55034 1.65101,0.83609 2.6776,0.83609 1.90501,0 2.91044,-0.89959 2.91044,-2.87869 v -4.847195 z m -1.95793,4.487365 c -1.13243,0 -1.93676,-0.75142 -1.93676,-1.83093 0,-1.090092 0.80433,-1.820346 1.93676,-1.820346 1.12184,0 1.92618,0.730254 1.92618,1.820346 0,1.07951 -0.80434,1.83093 -1.92618,1.83093 z"
       style="font-style:normal;font-variant:normal;font-weight:500;font-stretch:normal;font-family:Montserrat;-inkscape-font-specification:'Montserrat Medium';fill:#1a535c;fill-opacity:1;stroke-width:0.264584"
       id="path56" />
    <path
       d="m 115.10983,98.277998 c -0.89959,0 -1.73568,0.254002 -2.31777,0.719671 l 0.42334,0.762005 c 0.43392,-0.370419 1.11126,-0.603254 1.77801,-0.603254 1.00542,0 1.50284,0.49742 1.50284,1.35468 v 0.20108 h -1.60867 c -1.67218,0 -2.25427,0.74084 -2.25427,1.64043 0,0.97367 0.80434,1.65101 2.07435,1.65101 0.87842,0 1.50284,-0.29634 1.84151,-0.80434 v 0.74084 h 0.96309 v -3.38669 c 0,-1.534594 -0.86784,-2.275432 -2.40243,-2.275432 z m -0.23284,4.942452 c -0.77259,0 -1.23826,-0.34926 -1.23826,-0.91018 0,-0.47625 0.28576,-0.86784 1.29118,-0.86784 h 1.56634 v 0.78318 c -0.254,0.64558 -0.85725,0.99484 -1.61926,0.99484 z"
       style="font-style:normal;font-variant:normal;font-weight:500;font-stretch:normal;font-family:Montserrat;-inkscape-font-specification:'Montserrat Medium';fill:#1a535c;fill-opacity:1;stroke-width:0.264584"
       id="path58" />
  </g>
</svg>
