<?xml version="1.0" encoding="UTF-8" standalone="no"?>
<!-- Created with Inkscape (http://www.inkscape.org/) -->

<svg
   xmlns:dc="http://purl.org/dc/elements/1.1/"
   xmlns:cc="http://creativecommons.org/ns#"
   xmlns:rdf="http://www.w3.org/1999/02/22-rdf-syntax-ns#"
   xmlns:svg="http://www.w3.org/2000/svg"
   xmlns="http://www.w3.org/2000/svg"
   xmlns:sodipodi="http://sodipodi.sourceforge.net/DTD/sodipodi-0.dtd"
   xmlns:inkscape="http://www.inkscape.org/namespaces/inkscape"
   width="210mm"
   height="90mm"
   viewBox="0 0 210 90"
   version="1.1"
   id="svg8"
   inkscape:version="0.92.4 (unknown)"
   sodipodi:docname="taza 4.svg">
  <defs
     id="defs2" />
  <sodipodi:namedview
     id="base"
     pagecolor="#ffffff"
     bordercolor="#666666"
     borderopacity="1.0"
     inkscape:pageopacity="1"
     inkscape:pageshadow="2"
     inkscape:zoom="1.2329556"
     inkscape:cx="387.86059"
     inkscape:cy="181.19452"
     inkscape:document-units="mm"
     inkscape:current-layer="layer1"
     showgrid="false"
     showguides="true"
     inkscape:guide-bbox="true"
     inkscape:window-width="1920"
     inkscape:window-height="1016"
     inkscape:window-x="0"
     inkscape:window-y="27"
     inkscape:window-maximized="1">
    <sodipodi:guide
       position="104.99097,51.935037"
       orientation="1,0"
       id="guide817"
       inkscape:locked="false" />
    <sodipodi:guide
       position="157.39844,62.271567"
       orientation="1,0"
       id="guide1609"
       inkscape:locked="false" />
    <sodipodi:guide
       position="52.599206,56.191799"
       orientation="1,0"
       id="guide1611"
       inkscape:locked="false" />
  </sodipodi:namedview>
  <metadata
     id="metadata5">
    <rdf:RDF>
      <cc:Work
         rdf:about="">
        <dc:format>image/svg+xml</dc:format>
        <dc:type
           rdf:resource="http://purl.org/dc/dcmitype/StillImage" />
        <dc:title></dc:title>
      </cc:Work>
    </rdf:RDF>
  </metadata>
  <g
     inkscape:label="Capa 1"
     inkscape:groupmode="layer"
     id="layer1"
     transform="translate(0,-207)">
    <g
       id="g1055"
       transform="translate(-31.46887,56.96788)" />
    <g
       id="g1028"
       transform="translate(-20.04638,55.107705)" />
    <g
       id="g8437"
       transform="matrix(1.0275697,0,0,1.0275697,-129.72783,-29.358525)">
      <path
         style="fill:#000000;stroke-width:0.12954751"
         d="m 157.15464,300.15731 c -0.65462,-0.0819 -1.22674,-0.18541 -1.2714,-0.23007 -0.0952,-0.0952 0.14882,-5.21281 0.32939,-6.90899 0.33071,-3.10647 0.33453,-2.98353 -0.1066,-3.42466 -0.57885,-0.57886 -0.85052,-0.51595 -1.68873,0.39107 -0.40054,0.43344 -1.60448,1.50696 -2.67543,2.38563 -2.62594,2.15447 -3.30741,2.80396 -3.30741,3.15215 0,0.32202 0.37905,0.9437 1.15873,1.90044 0.29034,0.35624 0.59712,0.87396 0.68176,1.15048 0.14214,0.46435 0.13104,0.52126 -0.14514,0.7449 -0.48005,0.38873 -1.14206,0.31082 -1.95617,-0.23021 -1.41188,-0.93826 -3.8847,-3.78571 -3.8847,-4.47321 0,-0.40618 1.76953,-2.36235 3.61177,-3.99273 1.00608,-0.89037 1.82922,-1.7162 1.82922,-1.83516 0,-0.11898 -0.41275,-0.86664 -0.91722,-1.66146 -1.39408,-2.19643 -1.976,-3.4896 -1.976,-4.39119 0,-1.46379 1.18649,-3.2423 3.91975,-5.87554 2.44954,-2.35988 5.18976,-4.38489 8.6083,-6.36149 0.97878,-0.56592 2.003,-1.30412 3.90289,-2.81296 0.35625,-0.28293 1.2307,-0.81765 1.94322,-1.18827 1.13702,-0.59145 1.39054,-0.67414 2.07276,-0.67602 1.00229,-0.003 1.71347,0.34069 2.83667,1.3699 0.7127,0.65305 0.88853,0.89964 1.05856,1.48452 0.12022,0.41354 0.42607,0.9729 0.74529,1.36299 0.89888,1.09848 0.93574,1.18319 0.76421,1.75572 -0.22146,0.73916 -1.11051,2.15263 -1.49117,2.37073 -0.28201,0.16158 -0.42769,0.1641 -1.00083,0.0172 -1.00831,-0.25843 -1.02576,-0.22166 -1.16767,2.46108 -0.0656,1.24047 -0.12074,2.78862 -0.12251,3.4403 l -0.003,1.18488 2.36426,1.65666 c 5.27614,3.6971 7.17113,5.30166 7.73891,6.55284 0.29116,0.64163 0.34918,1.97467 0.10889,2.50205 -0.18664,0.40964 -0.56515,0.52405 -1.69157,0.51133 -1.06473,-0.012 -1.32229,-0.20294 -1.52045,-1.12695 -0.18146,-0.84612 -0.50943,-1.36655 -1.32103,-2.09625 -0.90119,-0.81025 -2.56458,-1.9047 -2.81602,-1.85284 -0.33529,0.0691 -0.19815,0.59322 0.71012,2.71389 1.62398,3.79167 2.51564,6.58364 2.51564,7.87694 0,0.85924 -0.44139,1.3596 -1.31488,1.4906 -0.68233,0.10232 -1.96862,-0.10898 -2.40533,-0.39512 -0.62075,-0.40673 -0.71571,-1.46521 -0.29577,-3.29696 0.13884,-0.60563 0.25394,-1.24957 0.25578,-1.43098 0.0106,-1.04819 -4.28548,-6.40642 -6.50743,-8.11637 -0.92072,-0.70856 -1.09824,-1.04192 -1.24275,-2.3336 -0.0628,-0.56059 -0.21058,-1.20595 -0.32858,-1.43414 -0.23798,-0.46019 -1.66454,-1.66522 -2.11894,-1.78989 -0.2338,-0.0641 -0.58173,0.16424 -1.77968,1.16827 -0.94131,0.78892 -1.51951,1.36936 -1.57187,1.57794 -0.0957,0.38134 -1.2e-4,0.58959 0.79133,1.72457 0.80067,1.14818 1.70451,2.93626 1.94506,3.84795 0.17055,0.64634 0.18776,1.34366 0.11324,4.58454 -0.0746,3.24214 -0.0597,3.84569 0.0983,3.97683 0.10244,0.085 0.64917,0.25019 1.21495,0.36706 1.48835,0.30742 1.74068,0.47097 1.74434,1.13053 0.002,0.30938 -0.0935,0.40009 -0.70204,0.66924 -1.23823,0.5476 -3.40358,0.70315 -5.73286,0.41183 z m 139.06769,0.0403 c -1.21364,-0.1285 -1.60717,-0.32138 -2.52182,-1.23603 -0.52985,-0.52986 -0.77186,-0.68847 -0.95954,-0.62889 -0.27018,0.0857 -1.52932,-0.78022 -1.53961,-1.05887 -0.0101,-0.26728 0.98237,-2.30229 1.317,-2.70101 0.40502,-0.48257 0.68156,-1.02496 1.59646,-3.13117 0.68601,-1.57925 2.19743,-4.44354 4.0423,-7.66039 0.46182,-0.8053 0.91833,-1.76718 1.01446,-2.13754 0.19693,-0.75876 0.70393,-4.42371 0.70393,-5.08853 0,-0.52878 0.0576,-0.49589 -2.475,-1.41522 -1.09608,-0.3979 -2.12949,-0.81295 -2.29645,-0.92235 -0.16696,-0.10939 -0.50378,-0.6205 -0.74847,-1.13578 -0.42859,-0.90245 -0.43823,-0.95585 -0.26273,-1.4533 0.10024,-0.28403 0.25481,-1.0674 0.34354,-1.74082 0.11823,-0.89729 0.26066,-1.40166 0.53313,-1.88791 0.41268,-0.73642 0.44017,-0.95567 0.22203,-1.77129 -0.19291,-0.72127 -0.0787,-1.14707 0.471,-1.75549 0.36643,-0.4056 0.51428,-0.76218 0.84467,-2.03711 0.22026,-0.84999 0.45072,-1.80778 0.51214,-2.12841 0.0615,-0.32063 0.23263,-1.05504 0.38048,-1.63203 0.23154,-0.90361 0.26721,-1.41551 0.2572,-3.69211 -0.01,-2.18632 0.0271,-2.75496 0.21169,-3.29077 0.29336,-0.85104 0.64355,-1.53139 0.89615,-1.74104 0.14306,-0.11872 0.2038,-0.39605 0.2038,-0.93055 0,-0.82448 -0.0287,-0.79941 0.87444,-0.76365 0.65377,0.0259 0.65753,0.006 0.22671,-1.18813 -0.40135,-1.11265 -0.42534,-2.11886 -0.0672,-2.82081 0.19332,-0.37895 0.47299,-0.62319 1.13354,-0.98996 0.8146,-0.45232 0.95512,-0.48752 1.97805,-0.49577 1.06122,-0.008 1.14603,0.0134 2.33875,0.60607 l 1.2376,0.61495 0.54618,-0.21456 0.54617,-0.21454 0.48285,0.39082 c 0.45478,0.36807 0.49068,0.4518 0.61745,1.43944 0.074,0.57675 0.16167,1.07233 0.19475,1.10129 0.15373,0.13445 1.01583,0.18301 1.13493,0.0639 0.0736,-0.0736 0.63422,-0.23596 1.24599,-0.36097 l 1.1123,-0.22729 v 1.38323 c 0,1.81121 -0.0372,1.86185 -1.23071,1.67681 -0.49876,-0.0774 -1.00463,-0.22738 -1.12414,-0.33345 -0.32367,-0.28726 -0.7983,-0.002 -1.51567,0.91243 -0.56626,0.72144 -0.59754,0.80488 -0.64358,1.71661 -0.0577,1.14125 0.3155,2.69747 0.91231,3.80484 0.37977,0.70467 0.38504,0.74138 0.33775,2.35285 -0.0327,1.11567 -0.1033,1.70358 -0.22154,1.84605 -0.22341,0.26919 -0.98311,0.27044 -2.27285,0.004 -0.5461,-0.11293 -1.077,-0.17306 -1.17979,-0.13361 -0.27111,0.10403 -0.24405,1.91563 0.0778,5.20888 0.23355,2.38963 0.29617,2.73523 0.53185,2.93475 0.22097,0.18705 0.25366,0.3214 0.18908,0.77728 -0.043,0.30313 -0.0748,1.57132 -0.0708,2.81821 0.004,1.2469 -0.0839,3.17068 -0.1954,4.27508 -0.11146,1.10439 -0.31519,3.36564 -0.45276,5.02501 -0.20274,2.44514 -0.29928,3.10816 -0.50937,3.49778 -0.14257,0.26442 -0.34854,0.66404 -0.45768,0.88806 -0.28963,0.59447 -0.59499,3.8544 -0.59556,6.35787 0,1.94372 -0.0278,2.21847 -0.25908,2.59777 -0.14225,0.23329 -0.25862,0.62499 -0.25862,0.87046 0,0.39936 0.0749,0.49424 0.71252,0.9021 0.39187,0.25067 0.71251,0.51107 0.71251,0.57865 0,0.0676 0.2337,0.25422 0.51934,0.41476 0.28563,0.16054 0.60572,0.42371 0.7113,0.58482 0.23503,0.35872 0.92498,0.5632 1.90354,0.56416 0.61484,6.5e-4 0.77111,0.0486 0.93922,0.28865 0.11091,0.15835 0.20166,0.41487 0.20166,0.57004 0,0.42572 -1.00584,0.63204 -2.90164,0.59521 -1.25342,-0.0244 -1.70379,-0.0885 -2.41066,-0.34352 -0.7945,-0.28659 -0.88699,-0.29585 -1.07522,-0.10761 -0.14055,0.14056 -0.5294,0.22468 -1.22457,0.26493 -0.85153,0.0492 -1.05605,0.0216 -1.2468,-0.16921 -0.13506,-0.13508 -0.20131,-0.33952 -0.16235,-0.50103 0.0362,-0.15008 0.10637,-0.91412 0.15593,-1.69788 0.0495,-0.78377 0.16983,-1.58234 0.26729,-1.77462 0.15253,-0.30093 0.14662,-0.47693 -0.0425,-1.26485 -0.19637,-0.8182 -0.20302,-1.13836 -0.0628,-3.01865 0.1873,-2.51061 0.18924,-2.68634 0.0295,-2.68634 -0.14855,0 -3.03936,3.82779 -3.53951,4.68677 -0.19409,0.33332 -0.35288,0.79656 -0.35288,1.02942 0,0.2458 -0.14238,0.62884 -0.33946,0.91321 -0.53338,0.76968 -0.54992,1.46697 -0.0555,2.34294 0.46578,0.82532 1.21632,1.55793 1.92289,1.87696 0.71325,0.32204 0.93352,0.54954 0.93352,0.9642 0,0.31989 -0.0847,0.40951 -0.59371,0.62766 -0.63112,0.27053 -0.84253,0.28057 -2.41173,0.11442 z m 2.48717,-34.70807 c 0.079,-0.1476 0.10472,-0.52363 0.0599,-0.87444 -0.0433,-0.33852 -0.0972,-1.02358 -0.11962,-1.52234 -0.0572,-1.271 -0.27018,-2.5265 -0.42839,-2.52568 -0.11472,6.4e-4 -0.5481,1.02578 -0.5481,1.29662 0,0.10628 -0.1729,0.79818 -0.38425,1.53755 -0.43496,1.52179 -0.40828,1.67788 0.35586,2.08138 0.61914,0.32693 0.89247,0.32871 1.0647,0.007 z m 8.05893,-11.80493 c 0.073,-0.21895 -0.22196,-1.82463 -0.39433,-2.14668 -0.20645,-0.38577 -0.1824,-1.08809 0.0477,-1.39229 0.40096,-0.53012 0.0356,-0.80843 -0.51469,-0.39215 -0.14606,0.11048 -0.53316,0.19021 -0.92351,0.19021 -0.6212,0 -0.68393,0.0287 -0.82946,0.38008 -0.23706,0.57232 -0.06,1.07589 0.73619,2.09342 0.88626,1.13269 1.73265,1.70385 1.87813,1.26741 z M 212.58859,299.888 c -0.37297,-0.11646 -0.86951,-0.47214 -1.51476,-1.08507 -0.95504,-0.90718 -1.2711,-1.07001 -2.42655,-1.2501 -0.97083,-0.15129 -1.30385,-1.14087 -0.64168,-1.90674 0.87218,-1.00877 1.75339,-3.14363 2.03712,-4.93521 0.22968,-1.4503 0.54537,-2.15851 1.2467,-2.79679 2.5133,-2.28737 2.66102,-2.49633 3.01948,-4.27085 0.16553,-0.8195 0.5165,-5.35318 0.47769,-6.17068 -0.0105,-0.22037 -0.23931,-0.70181 -0.52857,-1.11195 -0.9542,-1.35308 -1.16021,-2.19679 -0.87286,-3.57492 0.10509,-0.504 0.33311,-1.20049 0.50672,-1.54777 0.50516,-1.01048 0.522,-1.25002 0.16138,-2.29487 -0.37762,-1.09406 -0.39681,-1.46015 -0.13893,-2.65079 0.10334,-0.4772 0.25051,-1.68379 0.32703,-2.6813 0.17121,-2.23221 0.31547,-3.06964 0.7089,-4.11484 0.16819,-0.44686 0.34431,-1.10293 0.39138,-1.45795 0.16396,-1.23697 0.22725,-1.37937 0.96708,-2.17586 1.17844,-1.26869 1.6888,-2.17321 1.95255,-3.46062 0.42431,-2.07101 1.27493,-3.40746 2.80413,-4.40575 1.40937,-0.92004 2.41557,-1.07665 3.47647,-0.54107 0.5353,0.27022 2.09853,1.54804 2.19209,1.79183 0.0422,0.10999 0.0768,0.45586 0.0768,0.76858 0,0.42748 0.10015,0.71059 0.4034,1.14088 0.39613,0.56198 0.61617,1.3023 0.62736,2.11057 0.005,0.34159 -0.12353,0.5201 -0.78587,1.0939 l -0.79152,0.68569 -1.35394,0.0864 c -0.74467,0.0475 -1.42049,0.15297 -1.50183,0.2343 -0.2217,0.22171 0.052,1.60088 0.51792,2.61027 0.21337,0.4622 0.61174,1.50109 0.88527,2.30861 l 0.4973,1.46823 -0.36618,1.03056 c -0.31952,0.89927 -0.35896,1.16804 -0.30952,2.10957 0.0703,1.34059 0.35372,1.94418 1.98525,4.22866 1.29323,1.81079 2.9262,4.91065 3.23834,6.14729 0.10791,0.4275 0.23241,1.16528 0.2767,1.63951 0.0682,0.73033 0.0366,0.95287 -0.20628,1.45465 -0.15774,0.32582 -0.45796,0.77566 -0.66717,0.99963 -0.324,0.34684 -0.4425,0.39508 -0.79944,0.32543 -0.54755,-0.1068 -1.39986,-0.71166 -1.53834,-1.09169 -0.0894,-0.24513 -0.0356,-0.36697 0.2942,-0.66826 0.42982,-0.3926 0.87853,-1.48335 0.8856,-2.15279 0.006,-0.57398 -0.64634,-1.79746 -1.47915,-2.77391 -0.39486,-0.46294 -1.04175,-1.29084 -1.43754,-1.83977 -0.76022,-1.05433 -1.42787,-1.70746 -1.62248,-1.58719 -0.0642,0.0397 -0.3001,0.66681 -0.52408,1.39351 -0.22396,0.7267 -0.64564,1.8751 -0.93708,2.55198 -0.48375,1.12358 -0.5297,1.32703 -0.52801,2.33742 0.002,1.35864 0.12981,1.62583 1.88714,3.95404 1.62743,2.1561 2.0419,2.85693 2.34651,3.96784 0.13833,0.50445 0.36218,1.09869 0.49744,1.32051 0.21413,0.35116 0.24631,0.67147 0.24883,2.47609 0.002,1.16686 0.0813,2.52571 0.18232,3.10915 0.0987,0.57 0.21807,1.59019 0.26527,2.26708 0.11512,1.65075 0.34747,2.43382 0.87311,2.94242 0.51227,0.49566 2.60895,1.49985 3.60019,1.72428 0.97023,0.21968 1.38481,0.45031 1.61715,0.89959 0.5812,1.12392 -0.25855,1.38059 -3.37859,1.03269 -1.01669,-0.11337 -1.33967,-0.10357 -1.84093,0.0558 -1.43846,0.45751 -2.42304,0.37004 -2.54669,-0.22624 -0.0313,-0.15129 -0.0795,-0.79975 -0.10695,-1.441 -0.0495,-1.15736 -0.0567,-1.17879 -0.96924,-2.91482 -1.61357,-3.06954 -1.92476,-4.16866 -1.69456,-5.98516 0.1193,-0.94149 0.10905,-1.26151 -0.0623,-1.9432 -0.11284,-0.44886 -0.23828,-1.02914 -0.27877,-1.28951 -0.056,-0.35991 -0.34203,-0.77147 -1.19313,-1.71651 -0.64634,-0.71771 -1.22054,-1.24309 -1.3586,-1.24309 -0.1315,0 -0.34556,0.17506 -0.47568,0.38903 -0.25081,0.41241 -0.33355,0.66047 -0.85162,2.55274 -0.46865,1.7118 -0.79067,2.32882 -1.42098,2.7228 -0.29226,0.18268 -1.53039,1.32931 -2.7514,2.54807 -2.18768,2.18365 -2.54174,2.6546 -2.81412,3.74298 -0.16305,0.65162 0.13682,1.33629 0.98019,2.23785 0.43649,0.46662 1.04759,0.99722 1.35798,1.17913 0.61782,0.36207 0.81754,0.63619 0.81754,1.12213 0,0.25071 -0.11062,0.36256 -0.52082,0.5267 -0.6107,0.24436 -0.66646,0.24507 -1.3943,0.0178 z m 56.06597,-0.0494 c -0.39189,-0.13542 -1.26633,-0.30773 -1.94322,-0.38292 -1.54823,-0.17197 -2.46731,-0.47013 -2.97293,-0.96447 -0.59435,-0.58109 -0.54673,-1.11021 0.16956,-1.88347 0.31068,-0.3354 0.6347,-0.74349 0.72005,-0.90687 0.0854,-0.16339 0.26559,-1.27365 0.40054,-2.46725 0.44298,-3.91862 1.01502,-5.79986 2.3305,-7.66426 0.42734,-0.60563 0.9013,-1.36008 1.05327,-1.67654 0.26002,-0.54148 0.26756,-0.64839 0.12799,-1.81366 -0.13227,-1.1043 -0.11825,-1.41351 0.12958,-2.85763 0.19064,-1.11084 0.28003,-2.19531 0.2847,-3.4535 l 0.007,-1.83416 -0.39674,-0.45185 c -0.2182,-0.24852 -0.5639,-0.79311 -0.76822,-1.2102 -0.32823,-0.67002 -0.36925,-0.88719 -0.35212,-1.86432 0.022,-1.25811 0.46727,-2.813 1.05576,-3.6873 0.40721,-0.60495 0.41492,-1.04572 0.0839,-4.79326 -0.29024,-3.28629 -0.37806,-6.57347 -0.20498,-7.67275 0.29668,-1.88422 0.69666,-2.57564 2.16467,-3.74199 0.50028,-0.39748 0.50723,-0.41499 0.48913,-1.2307 -0.01,-0.45513 -0.0605,-1.3579 -0.11207,-2.00616 -0.12061,-1.51732 0.10457,-2.37829 0.80682,-3.08493 0.62472,-0.62861 1.68067,-1.2394 2.14544,-1.24097 0.46071,-0.002 1.18782,0.30245 1.75124,0.73219 0.53656,0.40926 1.19157,1.73181 1.19171,2.40627 5e-5,0.26617 0.0688,0.74086 0.1528,1.05486 0.12864,0.48099 0.12152,0.60212 -0.0452,0.76888 -0.10927,0.10927 -0.2351,0.55337 -0.28088,0.99147 -0.12037,1.15165 -0.23073,1.29978 -0.96823,1.29978 -0.74877,0 -1.12135,0.24092 -1.3245,0.85648 -0.2214,0.67082 -0.0981,1.17564 0.70392,2.88325 0.84343,1.79564 0.92252,2.21452 1.11609,5.91155 l 0.14246,2.72051 0.46716,0.68772 c 0.71458,1.05191 2.77655,3.40228 3.62147,4.12798 0.4152,0.35662 1.23121,0.98001 1.81338,1.38532 1.11563,0.77672 1.85634,1.51248 1.85634,1.84395 0,0.48479 -0.25796,0.69949 -0.84039,0.69949 -0.5318,0 -0.60032,-0.0409 -0.97061,-0.57909 -0.5496,-0.79881 -1.03916,-1.13934 -2.5301,-1.75984 -0.87661,-0.36484 -1.6301,-0.80136 -2.37272,-1.37459 -1.16684,-0.90067 -1.38541,-1.02747 -1.48561,-0.86187 -0.0353,0.0583 -0.13653,1.15689 -0.22501,2.44132 -0.14599,2.11886 -0.14033,2.40706 0.0609,3.10914 0.12205,0.4256 0.99672,2.28952 1.94373,4.14205 1.8133,3.5471 2.06025,4.14606 2.27001,5.50577 0.0715,0.46313 0.19615,1.13354 0.27714,1.48979 0.081,0.35626 0.16059,1.75537 0.17685,3.10915 0.032,2.66853 0.23125,4.06529 0.98625,6.91636 0.64568,2.43831 0.81038,2.63188 2.43548,2.86236 0.96876,0.13739 1.59714,0.0806 2.50053,-0.22585 0.72315,-0.24533 1.01216,-0.0993 1.01216,0.51144 0,0.87182 -0.67006,1.3278 -2.80139,1.90628 -0.79262,0.21515 -1.83433,0.53916 -2.31488,0.72005 -0.48057,0.18089 -1.00471,0.32888 -1.16474,0.32888 -0.7378,0 -1.35369,-1.13484 -1.18579,-2.18491 0.11818,-0.73895 -0.1556,-1.47337 -1.17859,-3.16182 -1.50766,-2.48839 -2.07718,-4.44056 -2.20062,-7.54325 l -0.0721,-1.81366 -0.60903,-1.2307 c -0.33497,-0.67689 -0.74359,-1.58049 -0.90808,-2.008 -0.16448,-0.4275 -0.37092,-0.95216 -0.45873,-1.16592 -0.0878,-0.21375 -0.22785,-0.60259 -0.31116,-0.86407 -0.0833,-0.2615 -0.22734,-0.53841 -0.32005,-0.61536 -0.13518,-0.1122 -0.18494,0.0728 -0.25112,0.93392 -0.0835,1.08622 -0.47875,2.6208 -0.97665,3.79188 -0.14966,0.35203 -0.35651,1.08783 -0.45969,1.6351 -0.23661,1.25521 -0.42837,1.62076 -1.39585,2.66073 -1.60502,1.72527 -3.14831,5.9477 -2.90984,7.96125 0.13757,1.16162 0.59898,1.65326 2.44837,2.6087 0.65126,0.33648 0.81973,0.48752 0.85195,0.76382 0.0493,0.42216 -0.24947,0.60882 -1.11264,0.69532 -0.40518,0.0406 -0.85214,-0.0217 -1.32415,-0.18492 z M 194.25,299.8158 c -0.70124,-0.0538 -1.34249,-0.1653 -1.42501,-0.2478 -0.0949,-0.0949 -0.2063,-1.23061 -0.30316,-3.09078 -0.14665,-2.81664 -0.17507,-3.01781 -0.67354,-4.76618 -0.6037,-2.11746 -0.63992,-2.49441 -0.41593,-4.32809 0.19347,-1.58371 0.15877,-2.39663 -0.10226,-2.39663 -0.17922,0 -2.34332,4.17449 -3.65974,7.0596 -0.97158,2.12931 -0.99322,2.93105 -0.11644,4.31358 0.46397,0.73161 0.86282,0.94637 2.23672,1.2044 1.16829,0.21942 1.53388,0.39791 1.87198,0.91389 0.21465,0.3276 0.21208,0.34683 -0.0774,0.58117 -0.23537,0.19059 -0.5107,0.24145 -1.28895,0.2381 -1.5077,-0.006 -7.16923,-0.57514 -7.49788,-0.75307 -0.5074,-0.27471 -0.48888,-0.67709 0.0853,-1.85216 0.6839,-1.39969 0.98587,-2.67216 1.24069,-5.22813 0.34,-3.41027 0.58547,-4.14485 1.6865,-5.04707 0.90536,-0.74186 0.93967,-0.8821 0.41083,-1.6786 -0.74954,-1.12888 -1.08111,-1.89431 -1.37956,-3.18471 -0.48052,-2.07759 -0.7521,-2.88327 -1.24453,-3.69211 -0.74765,-1.22803 -1.10998,-2.3158 -1.12063,-3.36426 -0.0106,-1.03882 0.18116,-1.50041 1.45497,-3.50338 0.85084,-1.33788 1.89924,-3.38032 2.46087,-4.79416 0.64092,-1.6134 1.42,-3.06234 2.09692,-3.89985 1.01052,-1.25023 3.55901,-3.38733 4.773,-4.00251 0.85628,-0.43391 2.55699,-1.72165 4.30972,-3.26321 0.84114,-0.73981 1.66016,-1.39484 1.82004,-1.45563 0.15988,-0.0608 0.67465,-0.15164 1.14394,-0.20188 1.07334,-0.11496 1.93071,0.12088 3.05993,0.84168 0.8339,0.5323 1.1912,1.05063 1.1912,1.72803 0,0.17081 0.1224,0.46619 0.27202,0.65639 0.33323,0.42361 0.25127,0.89039 -0.2093,1.19218 -0.17699,0.11596 -0.3218,0.27859 -0.3218,0.36138 0,0.0828 0.23919,0.46888 0.53156,0.85798 0.48866,0.65033 0.5252,0.75398 0.45261,1.28357 -0.10711,0.78144 -0.37952,1.15224 -1.0714,1.45827 -0.6793,0.30049 -1.06565,0.24395 -1.71632,-0.25124 -0.64466,-0.49061 -1.65561,-0.55716 -2.23174,-0.14693 -0.23437,0.1669 -0.7777,0.48603 -1.20741,0.70921 -0.91863,0.47711 -1.10603,0.76609 -0.97201,1.49898 0.0532,0.29088 0.0433,0.72233 -0.0219,0.95881 -0.13308,0.48194 -0.77912,1.09432 -1.15447,1.09432 -0.44334,0 -0.64587,0.54148 -0.76895,2.0558 -0.0642,0.78982 -0.18665,1.79151 -0.27213,2.22598 l -0.1554,0.78993 0.76365,0.77882 c 0.42001,0.42835 1.43407,1.2787 2.25345,1.88965 2.27477,1.69612 2.86155,2.22806 3.13181,2.83903 0.21904,0.49516 0.22528,0.59689 0.0609,0.99053 -0.20844,0.49884 -0.75378,0.8755 -1.72321,1.19013 -0.5157,0.16739 -0.72985,0.18381 -0.9388,0.072 -0.35638,-0.19074 -0.7897,-1.05557 -0.7897,-1.57612 0,-0.63923 -0.75868,-1.27255 -2.21944,-1.8527 -0.66747,-0.26509 -1.43093,-0.62374 -1.6966,-0.79699 -0.26567,-0.17326 -0.544,-0.31501 -0.61856,-0.31501 -0.25434,0 -0.3882,0.66343 -0.38731,1.91926 0.002,2.14295 0.75468,4.5735 1.89862,6.12745 0.31664,0.43011 0.6309,0.92719 0.69835,1.10459 0.22156,0.58273 0.12849,3.32832 -0.21286,6.27933 -0.39325,3.39973 -0.37585,4.94065 0.069,6.10505 0.73985,1.9368 1.80036,2.73358 3.69953,2.77959 0.57,0.0138 1.1101,0.0284 1.20022,0.0324 0.2662,0.0118 0.68704,0.81498 0.64869,1.23797 l -0.0353,0.38865 -3.10915,0.0147 c -1.71002,0.008 -3.68289,-0.0293 -4.38412,-0.0831 z m 54.48014,-0.10152 c -0.22505,-0.1502 -0.22879,-0.38054 -0.0309,-1.90359 0.23496,-1.80837 0.11556,-4.86376 -0.24039,-6.15266 -0.33779,-1.22307 -0.34136,-2.23253 -0.0128,-3.60317 0.142,-0.59232 0.25817,-1.16072 0.25817,-1.26307 0,-0.59916 -1.18921,0.30503 -4.27467,3.25013 -0.74836,0.71431 -1.68127,1.5554 -2.07314,1.86911 -2.11382,1.69217 -2.6783,2.56297 -2.15019,3.31696 0.0999,0.14266 0.33306,0.63194 0.51809,1.08728 0.4399,1.08259 0.61132,1.25817 1.72926,1.77121 0.72595,0.33315 0.93921,0.49209 0.93921,0.7 0,0.42692 -0.7891,0.68983 -1.81329,0.60415 -1.66638,-0.1394 -2.44709,-0.56027 -3.04474,-1.64139 -0.36792,-0.66555 -1.07933,-1.46036 -1.98906,-2.22226 -0.32045,-0.26839 -0.40757,-0.44253 -0.40757,-0.81483 0,-0.6192 0.36696,-1.31074 1.03632,-1.95297 0.98301,-0.9432 1.80308,-2.0897 2.26255,-3.16317 0.95675,-2.2353 2.24609,-3.77535 3.86139,-4.61226 1.70404,-0.88288 1.8705,-1.19143 1.39243,-2.58097 -0.44819,-1.30267 -0.66768,-2.79723 -0.72406,-4.93021 l -0.0548,-2.07276 -0.77212,-0.71566 c -1.86377,-1.72746 -1.88173,-3.75452 -0.0555,-6.26433 0.92647,-1.2732 0.98768,-1.8384 0.3617,-3.33958 -0.37376,-0.89632 -0.60843,-1.92078 -1.0174,-4.44126 -0.26455,-1.6304 -0.29529,-2.10024 -0.19499,-2.9796 0.14618,-1.28143 0.42307,-2.37097 0.78074,-3.07207 0.14884,-0.29171 0.24485,-0.62887 0.21338,-0.74921 -0.0672,-0.25705 -2.34095,-3.69856 -2.71827,-4.11437 -0.14212,-0.15661 -0.42489,-0.32132 -0.62836,-0.36601 -0.46083,-0.10122 -1.1371,-0.86759 -2.03657,-2.30794 -0.76709,-1.22834 -1.25143,-2.49075 -1.38728,-3.61582 -0.1116,-0.9244 -0.0213,-0.94284 1.27717,-0.26055 1.80026,0.94601 3.84466,3.33177 3.84466,4.48663 0,0.64499 0.22065,1.07863 1.61933,3.18223 0.57388,0.8631 1.1231,1.55633 1.2307,1.55337 0.33597,-0.009 1.24202,-2.12225 1.60692,-3.74753 0.18883,-0.84102 0.51819,-1.85632 0.75642,-2.33172 0.37477,-0.74793 0.50159,-0.88134 1.13444,-1.19349 1.2008,-0.59229 4.22508,-0.79874 5.36296,-0.36612 0.47545,0.18076 0.9758,0.79224 1.06304,1.29913 0.14362,0.83439 0.4481,1.6152 0.85151,2.18355 0.37521,0.52861 0.39022,0.59371 0.2471,1.07143 -0.0838,0.27974 -0.12134,0.55886 -0.0834,0.62027 0.038,0.0614 -0.0518,0.26516 -0.19933,0.45279 -0.14759,0.18762 -0.32392,0.54244 -0.39185,0.78849 -0.0679,0.24605 -0.27186,0.62364 -0.45316,0.8391 -0.50905,0.60497 -1.09676,0.6864 -2.40677,0.33345 -0.27678,-0.0746 -0.41756,-0.0264 -0.67486,0.23089 -0.17881,0.17881 -0.36467,0.48271 -0.41302,0.67532 -0.11223,0.4472 0.45735,2.23237 1.1354,3.55854 0.94646,1.85112 1.18225,2.49185 1.16805,3.17392 -0.066,3.16968 -0.15488,4.8504 -0.27273,5.15799 -0.23951,0.6252 0.13727,1.11962 0.85587,1.12308 0.52138,0.002 1.07073,0.20771 1.12724,0.42106 0.0238,0.0902 0.14432,0.46855 0.26767,0.84093 0.15092,0.45557 0.19597,0.8447 0.13771,1.18951 -0.0787,0.46557 -0.0282,0.59913 0.55152,1.46048 2.3642,3.51254 3.91586,6.09564 3.91586,6.51882 0,0.34253 -0.38015,0.80686 -0.80448,0.98264 -0.55727,0.23083 -0.32311,0.5447 -4.81654,-6.45627 -0.74534,-1.16126 -0.89724,-1.32762 -1.21057,-1.32588 -0.57155,0.003 -0.66551,0.14098 -0.88617,1.29975 -0.26163,1.37395 -0.21401,1.71756 0.47807,3.44939 0.53778,1.34568 0.56188,1.46524 0.59624,2.95696 0.0197,0.85501 0.0695,2.86623 0.11079,4.46938 0.0632,2.45733 0.0411,3.05715 -0.14117,3.82165 -0.11888,0.49877 -0.26136,1.51895 -0.31661,2.26709 -0.0552,0.74813 -0.26386,2.26383 -0.46356,3.36823 -0.23623,1.30637 -0.36669,2.48329 -0.37337,3.36824 -0.0128,1.6941 0.14751,2.15075 0.81489,2.32156 0.64499,0.16506 2.2276,0.50091 3.32039,0.70459 0.78294,0.14594 0.92278,0.21417 1.02365,0.49949 0.17355,0.49087 0.0199,0.74943 -0.44515,0.74943 -0.22068,0 -0.52856,0.0716 -0.6842,0.15891 -0.17609,0.0989 -1.23706,0.1971 -2.80913,0.26004 -1.38941,0.0557 -2.9051,0.13147 -3.36824,0.16856 -0.46314,0.0371 -0.91785,0.0168 -1.01049,-0.0451 z"
         id="path8443"
         inkscape:connector-curvature="0" />
      <rect
         style="opacity:1;fill:#000000;fill-opacity:1;stroke:none;stroke-width:4.62358761;stroke-miterlimit:4;stroke-dasharray:none;stroke-opacity:1"
         id="rect9300"
         width="181.72856"
         height="1.2775294"
         x="137.5658"
         y="304.67514" />
    </g>
    <g
       id="g11235"
       transform="matrix(1.0134428,0,0,1.0134428,-40.86049,-35.637301)">
      <g
         id="g1626"
         transform="matrix(0.50037544,0,0,0.50037544,26.279855,131.22884)">
        <g
           id="layer1-8"
           transform="matrix(0.33388373,0,0,0.33388373,17.542557,191.2291)">
          <g
             transform="matrix(0.08337846,0,0,0.08337846,73.979292,2.1159287)"
             id="g4449">
            <rect
               y="1160.9828"
               x="-222.62828"
               height="1189.3505"
               width="1189.3505"
               id="rect4294"
               style="fill:#ff6600;fill-opacity:1;stroke:#ffffff;stroke-width:10;stroke-linejoin:miter;stroke-miterlimit:4;stroke-dasharray:none" />
            <g
               id="g4349"
               transform="translate(0,-58)">
              <path
                 style="fill:#000000;fill-opacity:0;stroke:#ffffff;stroke-width:138.84674072;stroke-linejoin:miter;stroke-miterlimit:4;stroke-dasharray:none"
                 d="m 372.00597,1813.5637 h 417.44576 c 0,199.1525 -140.68016,370.5718 -336.00613,409.4248 -195.32598,38.8526 -390.896812,-65.6819 -467.109275,-249.6751 -76.212459,-183.9932 -11.840248,-396.2001 153.749155,-506.8434 165.58943,-110.6432 386.27701,-88.9072 527.0992,51.9148"
                 id="path4296"
                 inkscape:connector-curvature="0" />
            </g>
            <g
               id="g941"
               transform="matrix(1,0,0,0.79794703,0,398.72093)">
              <rect
                 style="fill:#ffffff;fill-opacity:1;stroke:none;stroke-width:4.8591361;stroke-linejoin:miter;stroke-miterlimit:4;stroke-dasharray:none"
                 id="rect937"
                 width="1074.5964"
                 height="310.86887"
                 x="-165.25127"
                 y="2036.1693" />
              <rect
                 y="2046.9651"
                 x="-181.22325"
                 height="353.2493"
                 width="1106.5404"
                 id="rect935"
                 style="fill:#ff6600;fill-opacity:1;stroke:none;stroke-width:5.25620222;stroke-linejoin:miter;stroke-miterlimit:4;stroke-dasharray:none" />
            </g>
            <text
               xml:space="preserve"
               style="font-style:normal;font-variant:normal;font-weight:normal;font-stretch:normal;font-size:144.20320129px;line-height:1.25;font-family:Montserrat;-inkscape-font-specification:Montserrat;font-variant-ligatures:normal;font-variant-caps:normal;font-variant-numeric:normal;font-feature-settings:normal;text-align:center;letter-spacing:0px;word-spacing:0px;writing-mode:lr-tb;text-anchor:middle;fill:#ffffff;fill-opacity:1;stroke:none;stroke-width:3.60507989"
               x="371.68634"
               y="2171.9888"
               id="text945"><tspan
                 sodipodi:role="line"
                 id="tspan943"
                 x="375.27341"
                 y="2171.9888"
                 style="font-style:normal;font-variant:normal;font-weight:normal;font-stretch:normal;font-size:144.20320129px;font-family:Montserrat;-inkscape-font-specification:Montserrat;font-variant-ligatures:normal;font-variant-caps:normal;font-variant-numeric:normal;font-feature-settings:normal;text-align:center;letter-spacing:7.17410898px;writing-mode:lr-tb;text-anchor:middle;fill:#ffffff;fill-opacity:1;stroke-width:3.60507989">micamara.ga</tspan></text>
          </g>
        </g>
      </g>
    </g>
  </g>
</svg>
